<svg width="218" height="221" xmlns="http://www.w3.org/2000/svg" xmlns:xlink="http://www.w3.org/1999/xlink" overflow="hidden"><defs><clipPath id="clip0"><path d="M222 122 440 122 440 343 222 343Z" fill-rule="evenodd" clip-rule="evenodd"/></clipPath></defs><g clip-path="url(#clip0)" transform="translate(-222 -122)"><path d="M223 202 439 123 439 163.667 223 202Z" fill="#FED401" fill-rule="evenodd"/><path d="M257.375 299.47 296.39 299.47 296.39 276.53 257.375 276.53 257.375 259.284 300.375 259.284 285.764 234 225 234 225 342 311 342 311 317.553 257.375 317.553 257.375 299.47Z" fill="#FFFFFF" fill-rule="evenodd"/><path d="M367.778 234 349.917 269.163 331.055 234 296 234 333.559 299.47 333.559 342 365.441 342 365.441 299.47 403 234 367.778 234Z" fill="#FFFFFF" fill-rule="evenodd"/></g></svg>